<svg xmlns="http://www.w3.org/2000/svg" version="1.1" xmlns:xlink="http://www.w3.org/1999/xlink" xmlns:svgjs="http://svgjs.dev/svgjs" width="1000" height="1000" viewBox="0 0 1000 1000"><rect width="1000" height="1000" fill="#ffffff"></rect><g transform="matrix(0.7,0,0,0.7,149.57575757575756,282.1265587044535)"><svg viewBox="0 0 396 247" data-background-color="#ffffff" preserveAspectRatio="xMidYMid meet" height="623" width="1000" xmlns="http://www.w3.org/2000/svg" xmlns:xlink="http://www.w3.org/1999/xlink"><g id="tight-bounds" transform="matrix(1,0,0,1,0.2400000000000091,-0.09999999999999432)"><svg viewBox="0 0 395.52 247.2" height="247.2" width="395.52"><g><svg></svg></g><g><svg viewBox="0 0 395.52 247.2" height="247.2" width="395.52"><g><g><path xmlns="http://www.w3.org/2000/svg" d="M146.781 247.2c-2.575 0-6.203-0.117-10.885-0.351-4.682-0.234-9.364-0.585-14.045-1.054l4.936-20.072h40.816l-2.914 14.103c-0.468 2.341-1.568 4.143-3.3 5.408-1.779 1.311-6.648 1.966-14.608 1.966zM180.49 7.374c0.936-4.916 6.203-7.374 15.802-7.374 3.277 0 6.625 0.117 10.042 0.351 3.371 0.234 6.227 0.585 8.568 1.054l4.929 20.072-42.809 0zM273.542 240.177c0.468 2.341-0.351 4.097-2.458 5.267-2.107 1.17-7.14 1.756-15.099 1.756-2.575 0-5.735-0.047-9.481-0.14-3.745-0.14-8.193-0.328-13.343-0.562l-4.296-20.775 41.127 0z" fill="#010c80" fill-rule="nonzero" stroke="none" stroke-width="1" stroke-linecap="butt" stroke-linejoin="miter" stroke-miterlimit="10" stroke-dasharray="" stroke-dashoffset="0" font-family="none" font-weight="none" font-size="none" text-anchor="none" style="mix-blend-mode: normal" data-fill-palette-color="tertiary"></path></g></g><g transform="matrix(1,0,0,1,30.458706989407517,37.08)"><svg viewBox="0 0 334.60258602118495 173.04" height="173.04" width="334.60258602118495"><g><svg viewBox="0 0 395.52 204.54349027555557" height="173.04" width="334.60258602118495"><g transform="matrix(1,0,0,1,0,126.41608286814817)"><svg viewBox="0 0 395.52 78.1274074074074" height="78.1274074074074" width="395.52"><g><svg viewBox="0 0 395.52 78.1274074074074" height="78.1274074074074" width="395.52"><g><svg viewBox="0 0 395.52 78.1274074074074" height="78.1274074074074" width="395.52"><g transform="matrix(1,0,0,1,0,0)"><svg width="395.52" viewBox="0.10000000149011612 -35.5 182.22999572753906 36" height="78.1274074074074" data-palette-color="#010c80"><path d="M3.65 0.1L3.65 0.1Q3.1 0.1 2.1 0.05 1.1 0 0.1-0.1L0.1-0.1 8.45-34.05Q8.65-35.1 10.7-35.1L10.7-35.1Q11.4-35.1 12.13-35.05 12.85-35 13.35-34.9L13.35-34.9 21.7-0.9Q21.8-0.4 21.35-0.15 20.9 0.1 19.2 0.1L19.2 0.1Q18.65 0.1 17.85 0.08 17.05 0.05 15.95 0L15.95 0 12.3-17.65Q12.05-19 11.8-20.58 11.55-22.15 11.35-23.85 11.15-25.55 11-27.1L11-27.1Q10.85-25.55 10.63-23.85 10.4-22.15 10.18-20.58 9.95-19 9.65-17.65L9.65-17.65 6.2-0.95Q6.1-0.45 5.73-0.18 5.35 0.1 3.65 0.1ZM17.1-7.95L5.8-7.95 5.8-13 17.1-13 17.1-7.95ZM31.8 0.5L31.8 0.5Q28.85 0.5 27.07-0.3 25.3-1.1 24.37-2.48 23.45-3.85 23.15-5.68 22.85-7.5 22.85-9.6L22.85-9.6 22.85-33.95Q22.85-34.5 23.1-34.7 23.35-34.9 24.55-34.95 25.75-35 28.65-35L28.65-35 28.65-9.4Q28.65-8.2 28.77-7.3 28.9-6.4 29.25-5.8 29.6-5.2 30.22-4.93 30.85-4.65 31.8-4.65L31.8-4.65Q32.65-4.65 33.42-4.83 34.2-5 34.7-5.25L34.7-5.25 34.7-33.95Q34.7-34.5 34.95-34.7 35.2-34.9 36.37-34.95 37.55-35 40.4-35L40.4-35 40.4-1.4Q39.5-0.8 37.25-0.15 35 0.5 31.8 0.5ZM51.25 0.5L51.25 0.5Q49.55 0.5 48.2 0.08 46.85-0.35 45.85-1.4 44.85-2.45 44.2-4.35 43.55-6.25 43.22-9.2 42.9-12.15 42.9-16.35L42.9-16.35Q42.9-21.25 43.5-24.65 44.1-28.05 45.12-30.18 46.15-32.3 47.45-33.48 48.75-34.65 50.15-35.08 51.55-35.5 52.9-35.5L52.9-35.5Q55.05-35.5 56.05-35.08 57.05-34.65 57.35-33.98 57.65-33.3 57.65-32.55L57.65-32.55Q57.65-31.55 57.4-30.68 57.15-29.8 56.85-29.15L56.85-29.15Q56.55-29.4 56.15-29.58 55.75-29.75 55.27-29.88 54.8-30 54.25-30L54.25-30Q53.4-30 52.6-29.68 51.8-29.35 51.1-28.5 50.4-27.65 49.9-26.15 49.4-24.65 49.1-22.35 48.8-20.05 48.8-16.8L48.8-16.8Q48.8-13.55 49.02-11.4 49.25-9.25 49.7-8.03 50.15-6.8 50.9-6.28 51.65-5.75 52.7-5.75L52.7-5.75Q53.85-5.75 54.87-5.95 55.9-6.15 56.6-6.5L56.6-6.5Q56.9-5.85 57.12-4.98 57.35-4.1 57.35-3.2L57.35-3.2Q57.35-2.05 56.62-1.2 55.9-0.35 54.52 0.08 53.15 0.5 51.25 0.5ZM64.74 0L64.74 0 64.74-34.5Q64.74-34.5 64.87-34.5 64.99-34.5 65.74-34.5L65.74-34.5 69.34-34.5Q70.09-34.5 70.22-34.5 70.34-34.5 70.34-34.5L70.34-34.5 70.34-1Q70.34-0.5 70.09-0.3 69.84-0.1 68.67-0.05 67.49 0 64.74 0ZM75.64-29.75L58.64-29.75 58.64-34Q58.64-35 59.64-35L59.64-35 76.64-35 76.64-30.75Q76.64-30.15 76.42-29.95 76.19-29.75 75.64-29.75L75.64-29.75ZM78.64 0L78.64 0 78.64-32.55Q78.64-33.8 78.89-34.3 79.14-34.8 80.34-34.9 81.54-35 84.34-35L84.34-35 84.34-1Q84.34-0.5 84.09-0.3 83.84-0.1 82.67-0.05 81.49 0 78.64 0ZM95.84 0.5L95.84 0.5Q93.39 0.5 91.66-0.28 89.94-1.05 88.89-3.05 87.84-5.05 87.34-8.6 86.84-12.15 86.84-17.7L86.84-17.7Q86.84-24.5 87.89-28.38 88.94-32.25 91.06-33.88 93.19-35.5 96.39-35.5L96.39-35.5Q98.84-35.5 100.54-34.68 102.24-33.85 103.29-31.88 104.34-29.9 104.81-26.5 105.29-23.1 105.29-17.9L105.29-17.9Q105.29-10.85 104.29-6.85 103.29-2.85 101.21-1.18 99.14 0.5 95.84 0.5ZM96.14-5.3L96.14-5.3Q97.39-5.3 98.01-6.55 98.64-7.8 98.89-10.55 99.14-13.3 99.14-17.7L99.14-17.7Q99.14-22.05 98.96-24.7 98.79-27.35 98.19-28.53 97.59-29.7 96.29-29.7L96.29-29.7Q95.09-29.7 94.44-28.43 93.79-27.15 93.51-24.25 93.24-21.35 93.24-16.45L93.24-16.45Q93.24-12.55 93.44-10.1 93.64-7.65 94.26-6.48 94.89-5.3 96.14-5.3ZM125.29 0L120.94 0 115.64-13.4Q115.19-14.6 114.71-16.15 114.24-17.7 113.81-19.4 113.39-21.1 113.04-22.7 112.69-24.3 112.41-25.6 112.14-26.9 111.99-27.68 111.84-28.45 111.84-28.45L111.84-28.45 108.54-31.75 108.79-35 113.24-35 118.44-21.85Q118.94-20.55 119.44-18.93 119.94-17.3 120.36-15.63 120.79-13.95 121.14-12.4 121.49-10.85 121.74-9.6 121.99-8.35 122.14-7.63 122.29-6.9 122.29-6.9L122.29-6.9 125.69-3.25 125.29 0ZM107.79 0L107.79 0 107.79-34Q107.79-35 108.79-35L108.79-35 113.39-34 112.54-25.55Q112.69-24.5 112.79-23.4 112.89-22.3 112.99-21.18 113.09-20.05 113.16-18.98 113.24-17.9 113.29-16.85 113.34-15.8 113.36-14.83 113.39-13.85 113.39-13L113.39-13 113.39-1Q113.39-0.5 113.14-0.3 112.89-0.1 111.74-0.05 110.59 0 107.79 0ZM125.29 0L125.29 0 120.69-1 121.44-10.6Q121.29-11.75 121.19-12.83 121.09-13.9 121.01-14.9 120.94-15.9 120.86-16.85 120.79-17.8 120.76-18.73 120.74-19.65 120.71-20.55 120.69-21.45 120.69-22.35L120.69-22.35 120.69-34Q120.69-34.5 120.94-34.7 121.19-34.9 122.36-34.95 123.54-35 126.29-35L126.29-35 126.29-1Q126.29 0 125.29 0ZM135.83 0L129.28 0 129.28-34Q129.28-34.5 129.58-34.75 129.88-35 130.68-35L130.68-35 135.58-35Q137.18-35 138.68-34.68 140.18-34.35 141.38-33.5 142.58-32.65 143.31-31.13 144.03-29.6 144.03-27.15L144.03-27.15Q144.03-24.6 143.33-22.88 142.63-21.15 141.58-20.23 140.53-19.3 139.43-19.15L139.43-19.15Q140.33-19.05 141.33-18.73 142.33-18.4 143.21-17.63 144.08-16.85 144.63-15.48 145.18-14.1 145.18-11.9L145.18-11.9Q145.18-9.9 144.86-8.13 144.53-6.35 143.83-4.88 143.13-3.4 142.03-2.3 140.93-1.2 139.41-0.6 137.88 0 135.83 0L135.83 0ZM134.98-16.5L134.98-4.85 135.98-4.85Q136.58-4.85 137.03-5.3 137.48-5.75 137.81-6.6 138.13-7.45 138.31-8.65 138.48-9.85 138.48-11.4L138.48-11.4Q138.48-13.1 138.33-14.1 138.18-15.1 137.88-15.63 137.58-16.15 137.13-16.32 136.68-16.5 136.08-16.5L136.08-16.5 134.98-16.5ZM134.98-30.1L134.98-21.2 135.93-21.2Q136.53-21.2 136.96-21.8 137.38-22.4 137.61-23.48 137.83-24.55 137.83-25.95L137.83-25.95Q137.83-27.7 137.61-28.6 137.38-29.5 136.98-29.8 136.58-30.1 136.13-30.1L136.13-30.1 134.98-30.1ZM149.43 0.1L149.43 0.1Q148.88 0.1 147.88 0.05 146.88 0 145.88-0.1L145.88-0.1 154.23-34.05Q154.43-35.1 156.48-35.1L156.48-35.1Q157.18-35.1 157.91-35.05 158.63-35 159.13-34.9L159.13-34.9 167.48-0.9Q167.58-0.4 167.13-0.15 166.68 0.1 164.98 0.1L164.98 0.1Q164.43 0.1 163.63 0.08 162.83 0.05 161.73 0L161.73 0 158.08-17.65Q157.83-19 157.58-20.58 157.33-22.15 157.13-23.85 156.93-25.55 156.78-27.1L156.78-27.1Q156.63-25.55 156.41-23.85 156.18-22.15 155.96-20.58 155.73-19 155.43-17.65L155.43-17.65 151.98-0.95Q151.88-0.45 151.51-0.18 151.13 0.1 149.43 0.1ZM162.88-7.95L151.58-7.95 151.58-13 162.88-13 162.88-7.95ZM182.33-35L175.13-10.85 171.78-10.85 164.43-34.15Q164.28-34.6 164.53-34.77 164.78-34.95 166.18-34.98 167.58-35 170.83-35L170.83-35 172.28-28.45Q172.48-27.55 172.7-26.28 172.93-25 173.13-23.6 173.33-22.2 173.48-20.95 173.63-19.7 173.68-18.85L173.68-18.85Q173.78-19.7 173.93-20.95 174.08-22.2 174.28-23.6 174.48-25 174.7-26.3 174.93-27.6 175.13-28.5L175.13-28.5 176.33-34Q176.48-34.5 176.78-34.7 177.08-34.9 178.28-34.95 179.48-35 182.33-35L182.33-35ZM170.68 0L170.68 0 170.68-18.25 176.28-18.25 176.28-1Q176.28-0.5 176.05-0.3 175.83-0.1 174.68-0.05 173.53 0 170.68 0Z" opacity="1" transform="matrix(1,0,0,1,0,0)" fill="#000000" class="undefined-text-0" data-fill-palette-color="primary" id="text-0"></path></svg></g></svg></g></svg></g></svg></g><g transform="matrix(1,0,0,1,130.45011728349766,0)"><svg viewBox="0 0 134.6197654330047 107.97207703703705" height="107.97207703703705" width="134.6197654330047"><g><svg xmlns="http://www.w3.org/2000/svg" xmlns:xlink="http://www.w3.org/1999/xlink" version="1.1" x="8" y="0" viewBox="0.5 3.1480157375335693 59 53.70397186279297" enable-background="new 0 0 60 60" xml:space="preserve" height="107.97207703703705" width="118.61976543300469" class="icon-icon-0" data-fill-palette-color="accent" id="icon-0"><g fill="#77d4fc" data-fill-palette-color="accent"><g fill="#77d4fc" data-fill-palette-color="accent"><g fill="#77d4fc" data-fill-palette-color="accent"><g fill="#77d4fc" data-fill-palette-color="accent"><path d="M29.157 56.852c-1.959 0-3.8-0.763-5.185-2.148L7.936 38.669c-1.385-1.385-2.148-3.226-2.149-5.185 0-1.96 0.763-3.801 2.149-5.186L30.941 5.292c1.776-1.776 4.381-2.524 6.833-1.959L51.804 5.289c2.758 0.633 4.915 2.79 5.537 5.504l1.972 14.113c0.565 2.439-0.166 4.993-1.965 6.793L34.342 54.704C32.957 56.089 31.115 56.852 29.157 56.852zM36.124 4.112c-1.675 0-3.315 0.679-4.499 1.864L8.619 28.982c-1.202 1.202-1.865 2.801-1.864 4.502 0 1.7 0.663 3.299 1.864 4.501l16.037 16.036c1.202 1.202 2.801 1.864 4.501 1.864s3.299-0.662 4.501-1.864l23.006-23.006c1.561-1.561 2.196-3.78 1.699-5.933l-1.972-14.114c-0.532-2.314-2.405-4.187-4.762-4.729L37.598 4.283C37.087 4.167 36.605 4.112 36.124 4.112z" fill="#000000" data-fill-palette-color="accent"></path></g></g><g fill="#77d4fc" data-fill-palette-color="accent"><g fill="#77d4fc" data-fill-palette-color="accent"><path d="M17.84 54.88c-0.124 0-0.247-0.047-0.342-0.142L3.487 40.728C1.561 38.802 0.5 36.24 0.5 33.517s1.061-5.284 2.987-7.21L22.314 7.479c0.189-0.189 0.495-0.189 0.684 0 0.189 0.189 0.189 0.495 0 0.684L4.171 26.991c-1.743 1.743-2.703 4.061-2.704 6.526 0 2.466 0.96 4.784 2.704 6.527l14.011 14.011c0.189 0.189 0.189 0.495 0 0.683C18.087 54.833 17.964 54.88 17.84 54.88z" fill="#000000" data-fill-palette-color="accent"></path></g></g><g fill="#77d4fc" data-fill-palette-color="accent"><g fill="#77d4fc" data-fill-palette-color="accent"><path d="M45.839 21.838c-1.346 0-2.61-0.524-3.562-1.475-1.964-1.964-1.964-5.159 0-7.124 0.952-0.951 2.217-1.475 3.562-1.476 1.345 0 2.61 0.524 3.562 1.476 1.964 1.964 1.964 5.159 0 7.124C48.449 21.314 47.185 21.838 45.839 21.838zM45.839 12.73c-1.088 0-2.109 0.424-2.878 1.192-1.587 1.587-1.587 4.17 0 5.757 0.769 0.769 1.791 1.192 2.878 1.192 1.087 0 2.109-0.423 2.878-1.192 1.587-1.587 1.587-4.17 0-5.757C47.948 13.155 46.926 12.73 45.839 12.73z" fill="#000000" data-fill-palette-color="accent"></path></g></g><g fill="#77d4fc" data-fill-palette-color="accent"><g fill="#77d4fc" data-fill-palette-color="accent"><g fill="#77d4fc" data-fill-palette-color="accent"><g fill="#77d4fc" data-fill-palette-color="accent"><path d="M27.082 40.805c-0.041 0-0.083-0.001-0.123-0.002-0.629-0.016-1.266-0.166-1.892-0.448-0.622-0.281-1.216-0.711-1.765-1.276l-0.161-0.161c-0.392-0.43-0.697-0.84-0.924-1.235-0.232-0.41-0.406-0.823-0.517-1.227-0.114-0.406-0.178-0.827-0.189-1.251-0.009-0.409 0.016-0.836 0.076-1.27 0.036-0.264 0.277-0.46 0.544-0.414 0.264 0.036 0.45 0.28 0.414 0.544-0.052 0.383-0.075 0.759-0.066 1.118 0.009 0.341 0.06 0.683 0.153 1.014 0.091 0.33 0.234 0.668 0.426 1.008 0.19 0.332 0.453 0.685 0.782 1.044l0.151 0.15c0.47 0.484 0.964 0.844 1.474 1.075 0.506 0.228 1.018 0.349 1.518 0.362 0.507 0.011 1-0.076 1.477-0.265 0.484-0.195 0.943-0.486 1.359-0.866 0.418-0.382 0.692-0.773 0.815-1.165 0.126-0.404 0.162-0.822 0.107-1.241-0.059-0.446-0.185-0.912-0.376-1.385-0.204-0.5-0.421-1.001-0.647-1.502-0.001-0.004-0.003-0.007-0.005-0.011-0.002-0.006-0.005-0.011-0.007-0.017l-0.091-0.231c-0.198-0.445-0.385-0.904-0.55-1.355-0.179-0.491-0.284-0.977-0.313-1.446-0.032-0.496 0.039-0.986 0.213-1.458 0.176-0.48 0.504-0.941 0.974-1.372 0.385-0.35 0.824-0.622 1.307-0.807 0.491-0.187 1.009-0.27 1.538-0.24 0.529 0.027 1.064 0.167 1.589 0.415 0.521 0.246 1.025 0.622 1.501 1.116l0.167 0.183c0.434 0.501 0.739 0.977 0.914 1.423 0.17 0.433 0.279 0.828 0.325 1.176 0.047 0.346 0.06 0.63 0.04 0.869-0.023 0.266-0.261 0.457-0.523 0.44-0.266-0.023-0.464-0.257-0.44-0.523 0.014-0.163 0.002-0.384-0.035-0.656-0.036-0.272-0.126-0.592-0.268-0.952-0.135-0.345-0.382-0.725-0.736-1.135l-0.15-0.164c-0.385-0.4-0.794-0.707-1.208-0.903-0.416-0.196-0.817-0.302-1.226-0.324-0.394-0.015-0.779 0.04-1.143 0.179-0.374 0.143-0.701 0.346-1 0.617-0.355 0.325-0.597 0.658-0.719 0.991-0.127 0.345-0.179 0.703-0.155 1.064 0.024 0.377 0.11 0.772 0.257 1.175 0.158 0.432 0.336 0.87 0.533 1.313l0.096 0.242c0.23 0.51 0.45 1.021 0.658 1.53 0.222 0.55 0.37 1.096 0.438 1.622 0.074 0.558 0.026 1.116-0.142 1.656-0.175 0.556-0.54 1.091-1.086 1.59-0.503 0.458-1.059 0.811-1.652 1.05C28.257 40.692 27.674 40.805 27.082 40.805z" fill="#000000" data-fill-palette-color="accent"></path></g></g></g><g fill="#77d4fc" data-fill-palette-color="accent"><g fill="#77d4fc" data-fill-palette-color="accent"><path d="M22.486 41.55c-0.124 0-0.247-0.047-0.342-0.142-0.189-0.189-0.189-0.495 0-0.683l14.858-14.858c0.189-0.189 0.495-0.189 0.684 0s0.189 0.495 0 0.684L22.828 41.408C22.733 41.503 22.609 41.55 22.486 41.55z" fill="#000000" data-fill-palette-color="accent"></path></g></g></g></g></g></svg></g></svg></g><g><rect width="99.99141029409013" height="7.045610227484444" y="99.92646680955261" x="265.0698827165023" fill="#000000" data-fill-palette-color="accent"></rect><rect width="99.99141029409013" height="7.045610227484444" y="99.92646680955261" x="30.458706989407517" fill="#000000" data-fill-palette-color="accent"></rect><rect width="99.99141029409013" height="7.045610227484444" y="85.83524635458372" x="265.0698827165023" fill="#000000" data-fill-palette-color="accent"></rect><rect width="99.99141029409013" height="7.045610227484444" y="85.83524635458372" x="30.458706989407517" fill="#000000" data-fill-palette-color="accent"></rect></g></svg></g></svg></g></svg></g><defs></defs></svg><rect width="395.52" height="247.2" fill="none" stroke="none" visibility="hidden"></rect></g></svg></g></svg>